<svg xmlns="http://www.w3.org/2000/svg" viewBox="0 0 1024 1024">
  <defs>
    <g id="glyph">
      <circle cx="512" cy="500" r="280" fill="none" stroke-width="88"/>
      <circle cx="512" cy="500" r="60" stroke="none"/>
    </g>
    <g id="stack">
      <use href="#glyph" transform="translate(0 -26)" stroke="#FFB000" fill="#FFB000"/>
      <use href="#glyph" transform="translate(-30 8)" stroke="#FF3D00" fill="#FF3D00"/>
      <use href="#glyph" transform="translate(28 12)" stroke="#00BFA5" fill="#00BFA5"/>
      <use href="#glyph" stroke="#E8E8E6" fill="#E8E8E6"/>
    </g>
    <pattern id="scan" patternUnits="userSpaceOnUse" width="8" height="6">
      <rect width="8" height="2.6" fill="#000000"/>
    </pattern>
    <clipPath id="c1"><rect x="-300" y="0" width="1624" height="160"/></clipPath>
    <clipPath id="c2"><rect x="-300" y="160" width="1624" height="70"/></clipPath>
    <clipPath id="c3"><rect x="-300" y="230" width="1624" height="60"/></clipPath>
    <clipPath id="c4"><rect x="-300" y="290" width="1624" height="100"/></clipPath>
    <clipPath id="c5"><rect x="-300" y="390" width="1624" height="70"/></clipPath>
    <clipPath id="c6"><rect x="-300" y="460" width="1624" height="80"/></clipPath>
    <clipPath id="c7"><rect x="-300" y="540" width="1624" height="70"/></clipPath>
    <clipPath id="c8"><rect x="-300" y="610" width="1624" height="80"/></clipPath>
    <clipPath id="c9"><rect x="-300" y="690" width="1624" height="90"/></clipPath>
    <clipPath id="c10"><rect x="-300" y="780" width="1624" height="244"/></clipPath>
  </defs>
  <rect width="1024" height="1024" fill="#050505"/>
  <g clip-path="url(#c1)"><g><use href="#stack"/></g></g>
  <g clip-path="url(#c2)"><g transform="translate(-60 0)"><use href="#stack"/></g></g>
  <g clip-path="url(#c3)"><g transform="translate(30 0)"><use href="#stack"/></g></g>
  <g clip-path="url(#c4)"><g><use href="#stack"/></g></g>
  <g clip-path="url(#c5)"><g transform="translate(90 0)"><use href="#stack"/></g></g>
  <g clip-path="url(#c6)"><g transform="translate(-40 0)"><use href="#stack"/></g></g>
  <g clip-path="url(#c7)"><g><use href="#stack"/></g></g>
  <g clip-path="url(#c8)"><g transform="translate(-90 0)"><use href="#stack"/></g></g>
  <g clip-path="url(#c9)"><g transform="translate(44 0)"><use href="#stack"/></g></g>
  <g clip-path="url(#c10)"><g><use href="#stack"/></g></g>
  <rect x="120" y="270" width="90" height="8" fill="#FF3D00" opacity="0.85"/>
  <rect x="790" y="330" width="120" height="8" fill="#00BFA5" opacity="0.85"/>
  <rect x="660" y="880" width="100" height="8" fill="#FFB000" opacity="0.85"/>
  <rect x="180" y="740" width="66" height="6" fill="#FFFFFF" opacity="0.5"/>
  <rect x="840" y="600" width="100" height="6" fill="#FF3D00" opacity="0.7"/>
  <rect x="420" y="96" width="150" height="8" fill="#00BFA5" opacity="0.7"/>
  <rect width="1024" height="1024" fill="url(#scan)" opacity="0.3"/>
</svg>
